<svg width="22" height="22" viewBox="0 0 25 25" fill="none" xmlns="http://www.w3.org/2000/svg">
<g clip-path="url(#clip0_56_171)">
<path d="M4.46429 5.07812C5.20647 5.07812 5.80357 4.55566 5.80357 3.90625C5.80357 3.25684 5.20647 2.73438 4.46429 2.73438C3.7221 2.73438 3.125 3.25684 3.125 3.90625C3.125 4.55566 3.7221 5.07812 4.46429 5.07812ZM8.92857 3.90625C8.92857 5.50781 7.82924 6.88477 6.25 7.48535V9.375C6.25 10.2393 7.04799 10.9375 8.03571 10.9375H16.9643C17.952 10.9375 18.75 10.2393 18.75 9.375V7.48535C17.1708 6.88477 16.0714 5.50781 16.0714 3.90625C16.0714 1.74805 18.0692 0 20.5357 0C23.0022 0 25 1.74805 25 3.90625C25 5.50781 23.9007 6.88477 22.3214 7.48535V9.375C22.3214 11.9629 19.9219 14.0625 16.9643 14.0625H14.2857V17.5146C15.865 18.1152 16.9643 19.4922 16.9643 21.0938C16.9643 23.252 14.9665 25 12.5 25C10.0335 25 8.03571 23.252 8.03571 21.0938C8.03571 19.4922 9.13504 18.1152 10.7143 17.5146V14.0625H8.03571C5.07812 14.0625 2.67857 11.9629 2.67857 9.375V7.48535C1.09933 6.88477 0 5.50781 0 3.90625C0 1.74805 1.99777 0 4.46429 0C6.9308 0 8.92857 1.74805 8.92857 3.90625ZM20.5357 5.07812C21.2779 5.07812 21.875 4.55566 21.875 3.90625C21.875 3.25684 21.2779 2.73438 20.5357 2.73438C19.7935 2.73438 19.1964 3.25684 19.1964 3.90625C19.1964 4.55566 19.7935 5.07812 20.5357 5.07812ZM13.8393 21.0938C13.8393 20.4443 13.2422 19.9219 12.5 19.9219C11.7578 19.9219 11.1607 20.4443 11.1607 21.0938C11.1607 21.7432 11.7578 22.2656 12.5 22.2656C13.2422 22.2656 13.8393 21.7432 13.8393 21.0938Z" fill="#7E7E7E"/>
</g>
<defs>
<clipPath id="clip0_56_171">
<rect width="25" height="25" fill="white"/>
</clipPath>
</defs>
</svg>
