<svg width="22" height="22" viewBox="0 0 25 25" fill="none" xmlns="http://www.w3.org/2000/svg">
<g clip-path="url(#clip0_56_167)">
<path d="M11.8847 0.126953L0.947221 4.81445C0.263627 5.10742 -0.117232 5.83984 0.0341352 6.5625C0.185502 7.28516 0.820268 7.8125 1.56246 7.8125V8.20312C1.56246 8.85254 2.08492 9.375 2.73433 9.375H22.2656C22.915 9.375 23.4375 8.85254 23.4375 8.20312V7.8125C24.1796 7.8125 24.8193 7.29004 24.9658 6.5625C25.1123 5.83496 24.7314 5.10254 24.0527 4.81445L13.1152 0.126953C12.7197 -0.0390625 12.2753 -0.0390625 11.8847 0.126953ZM6.24996 10.9375H3.12496V20.5225C3.09566 20.5371 3.06636 20.5566 3.03706 20.5762L0.693315 22.1387C0.122026 22.5195 -0.136763 23.2324 0.063432 23.8916C0.263627 24.5508 0.873979 25 1.56246 25H23.4375C24.1259 25 24.7314 24.5508 24.9316 23.8916C25.1318 23.2324 24.8779 22.5195 24.3017 22.1387L21.958 20.5762C21.9287 20.5566 21.8994 20.542 21.8701 20.5225V10.9375H18.75V20.3125H16.7968V10.9375H13.6718V20.3125H11.3281V10.9375H8.20308V20.3125H6.24996V10.9375ZM12.5 3.125C12.9144 3.125 13.3118 3.28962 13.6048 3.58265C13.8978 3.87567 14.0625 4.2731 14.0625 4.6875C14.0625 5.1019 13.8978 5.49933 13.6048 5.79235C13.3118 6.08538 12.9144 6.25 12.5 6.25C12.0856 6.25 11.6881 6.08538 11.3951 5.79235C11.1021 5.49933 10.9375 5.1019 10.9375 4.6875C10.9375 4.2731 11.1021 3.87567 11.3951 3.58265C11.6881 3.28962 12.0856 3.125 12.5 3.125Z" fill="#7E7E7E"/>
</g>
<defs>
<clipPath id="clip0_56_167">
<rect width="25" height="25" fill="white"/>
</clipPath>
</defs>
</svg>
