<svg width="22" height="22" viewBox="0 0 25 25" fill="none" xmlns="http://www.w3.org/2000/svg">
<g clip-path="url(#clip0_56_169)">
<path d="M12.4999 1.5625C12.1835 1.5625 11.871 1.63086 11.5741 1.7627L0.617056 6.70898C0.245963 6.87988 -0.000131161 7.31934 -0.000131161 7.8125C-0.000131161 8.30566 0.245963 8.74512 0.617056 8.91602L2.87877 9.93652C2.23815 11.1963 1.87487 12.6855 1.87487 14.2529V15.625C1.87487 17.0117 1.45299 18.4424 1.00378 19.5703C0.749869 20.2051 0.460806 20.8301 0.124869 21.4062C-0.00013116 21.6162 -0.0352874 21.8896 0.0350251 22.1387C0.105338 22.3877 0.2694 22.5732 0.472525 22.6367L2.97252 23.418C3.13659 23.4717 3.31237 23.4326 3.4569 23.3203C3.60143 23.208 3.70299 23.0225 3.73424 22.8125C4.07018 20.7227 3.90221 18.8477 3.65221 17.5049C3.52721 16.8115 3.35924 16.1035 3.12487 15.4541V14.2529C3.12487 12.7783 3.52331 11.3867 4.21471 10.2734C4.71862 9.5166 5.37096 8.90625 6.13659 8.53027L12.2694 5.51758C12.5897 5.36133 12.953 5.55664 13.078 5.95703C13.203 6.35742 13.0467 6.81152 12.7264 6.96777L6.59362 9.98047C6.10924 10.2197 5.68346 10.5859 5.33581 11.0352L11.5702 13.8477C11.8671 13.9795 12.1796 14.0479 12.496 14.0479C12.8124 14.0479 13.1249 13.9795 13.4217 13.8477L24.3827 8.91602C24.7538 8.75 24.9999 8.30566 24.9999 7.8125C24.9999 7.31934 24.7538 6.87988 24.3827 6.70898L13.4257 1.7627C13.1288 1.63086 12.8163 1.5625 12.4999 1.5625ZM4.99987 19.9219C4.99987 21.6455 8.35924 23.4375 12.4999 23.4375C16.6405 23.4375 19.9999 21.6455 19.9999 19.9219L19.4022 12.8223L13.8475 15.332C13.4139 15.5273 12.9569 15.625 12.4999 15.625C12.0428 15.625 11.5819 15.5273 11.1522 15.332L5.59753 12.8223L4.99987 19.9219Z" fill="#7E7E7E"/>
</g>
<defs>
<clipPath id="clip0_56_169">
<rect width="25" height="25" fill="white"/>
</clipPath>
</defs>
</svg>
