<svg width="22" height="22" viewBox="0 0 25 25" fill="none" xmlns="http://www.w3.org/2000/svg">
<g clip-path="url(#clip0_56_165)">
<path d="M8.05176 1.2013C7.67578 0.293093 6.68457 -0.190305 5.7373 0.0684838L1.44043 1.24036C0.59082 1.47473 0 2.24622 0 3.12512C0 15.2052 9.79492 25.0001 21.875 25.0001C22.7539 25.0001 23.5254 24.4093 23.7598 23.5597L24.9316 19.2628C25.1904 18.3156 24.707 17.3243 23.7988 16.9484L19.1113 14.9952C18.3154 14.6632 17.3926 14.8927 16.8506 15.5616L14.8779 17.9689C11.4404 16.3429 8.65723 13.5597 7.03125 10.1222L9.43848 8.15442C10.1074 7.60755 10.3369 6.68958 10.0049 5.89368L8.05176 1.20618V1.2013Z" fill="#7E7E7E"/>
</g>
<defs>
<clipPath id="clip0_56_165">
<rect width="25" height="25" fill="white"/>
</clipPath>
</defs>
</svg>

